<mxfile host="app.diagrams.net" modified="2022-05-05T11:20:52.074Z" agent="5.0 (Windows NT 10.0; Win64; x64) AppleWebKit/537.36 (KHTML, like Gecko) Chrome/101.0.4951.41 Safari/537.36 Edg/101.0.1210.32" etag="W4ylBbCoauRRQBYeTppQ" version="17.5.1" type="github">
  <diagram id="JE347bc95eZaiT-d0Rc0" name="Page-1">
    <mxGraphModel dx="1038" dy="579" grid="1" gridSize="10" guides="1" tooltips="1" connect="1" arrows="1" fold="1" page="1" pageScale="1" pageWidth="850" pageHeight="1100" math="0" shadow="0">
      <root>
        <mxCell id="0" />
        <mxCell id="1" parent="0" />
        <mxCell id="3ygEQSFRceTd5VmDOqFs-20" value="" style="edgeStyle=orthogonalEdgeStyle;rounded=0;orthogonalLoop=1;jettySize=auto;html=1;" parent="1" source="3ygEQSFRceTd5VmDOqFs-1" target="3ygEQSFRceTd5VmDOqFs-2" edge="1">
          <mxGeometry relative="1" as="geometry" />
        </mxCell>
        <mxCell id="3ygEQSFRceTd5VmDOqFs-1" value="start" style="rounded=1;whiteSpace=wrap;html=1;" parent="1" vertex="1">
          <mxGeometry x="80" y="30" width="90" height="20" as="geometry" />
        </mxCell>
        <mxCell id="3ygEQSFRceTd5VmDOqFs-4" value="" style="edgeStyle=orthogonalEdgeStyle;rounded=0;orthogonalLoop=1;jettySize=auto;html=1;" parent="1" source="3ygEQSFRceTd5VmDOqFs-2" target="3ygEQSFRceTd5VmDOqFs-3" edge="1">
          <mxGeometry relative="1" as="geometry" />
        </mxCell>
        <mxCell id="3ygEQSFRceTd5VmDOqFs-6" value="" style="edgeStyle=orthogonalEdgeStyle;rounded=0;orthogonalLoop=1;jettySize=auto;html=1;" parent="1" source="3ygEQSFRceTd5VmDOqFs-2" target="3ygEQSFRceTd5VmDOqFs-5" edge="1">
          <mxGeometry relative="1" as="geometry" />
        </mxCell>
        <mxCell id="3ygEQSFRceTd5VmDOqFs-2" value="TRY" style="shape=process;whiteSpace=wrap;html=1;backgroundOutline=1;" parent="1" vertex="1">
          <mxGeometry x="65" y="110" width="120" height="60" as="geometry" />
        </mxCell>
        <mxCell id="3ygEQSFRceTd5VmDOqFs-3" value="CATCH" style="shape=process;whiteSpace=wrap;html=1;backgroundOutline=1;" parent="1" vertex="1">
          <mxGeometry x="65" y="250" width="120" height="60" as="geometry" />
        </mxCell>
        <mxCell id="3ygEQSFRceTd5VmDOqFs-8" value="yes" style="edgeStyle=orthogonalEdgeStyle;rounded=0;orthogonalLoop=1;jettySize=auto;html=1;" parent="1" source="3ygEQSFRceTd5VmDOqFs-5" target="3ygEQSFRceTd5VmDOqFs-7" edge="1">
          <mxGeometry relative="1" as="geometry" />
        </mxCell>
        <mxCell id="3ygEQSFRceTd5VmDOqFs-14" value="" style="edgeStyle=orthogonalEdgeStyle;rounded=0;orthogonalLoop=1;jettySize=auto;html=1;" parent="1" source="3ygEQSFRceTd5VmDOqFs-5" target="3ygEQSFRceTd5VmDOqFs-13" edge="1">
          <mxGeometry relative="1" as="geometry" />
        </mxCell>
        <mxCell id="3ygEQSFRceTd5VmDOqFs-5" value="IF target agent &lt;br&gt;and vehicle has attackAgents&lt;br&gt;&amp;nbsp;array" style="rhombus;whiteSpace=wrap;html=1;" parent="1" vertex="1">
          <mxGeometry x="260" y="40" width="120" height="100" as="geometry" />
        </mxCell>
        <mxCell id="3ygEQSFRceTd5VmDOqFs-12" value="yes" style="edgeStyle=orthogonalEdgeStyle;rounded=0;orthogonalLoop=1;jettySize=auto;html=1;" parent="1" source="3ygEQSFRceTd5VmDOqFs-7" target="3ygEQSFRceTd5VmDOqFs-11" edge="1">
          <mxGeometry relative="1" as="geometry" />
        </mxCell>
        <mxCell id="3ygEQSFRceTd5VmDOqFs-7" value="IF target agent doesn&#39;t have the vehicle id into attacking list" style="rhombus;whiteSpace=wrap;html=1;" parent="1" vertex="1">
          <mxGeometry x="260" y="190" width="120" height="100" as="geometry" />
        </mxCell>
        <mxCell id="3ygEQSFRceTd5VmDOqFs-18" value="" style="edgeStyle=orthogonalEdgeStyle;rounded=0;orthogonalLoop=1;jettySize=auto;html=1;" parent="1" source="3ygEQSFRceTd5VmDOqFs-11" target="3ygEQSFRceTd5VmDOqFs-17" edge="1">
          <mxGeometry relative="1" as="geometry" />
        </mxCell>
        <mxCell id="3ygEQSFRceTd5VmDOqFs-11" value="store the &lt;br&gt;vehicle into target agent" style="shape=dataStorage;whiteSpace=wrap;html=1;fixedSize=1;" parent="1" vertex="1">
          <mxGeometry x="272.5" y="330" width="95" height="70" as="geometry" />
        </mxCell>
        <mxCell id="3ygEQSFRceTd5VmDOqFs-16" value="" style="edgeStyle=orthogonalEdgeStyle;rounded=0;orthogonalLoop=1;jettySize=auto;html=1;" parent="1" source="3ygEQSFRceTd5VmDOqFs-13" target="3ygEQSFRceTd5VmDOqFs-15" edge="1">
          <mxGeometry relative="1" as="geometry" />
        </mxCell>
        <mxCell id="3ygEQSFRceTd5VmDOqFs-13" value="ELSE" style="rhombus;whiteSpace=wrap;html=1;" parent="1" vertex="1">
          <mxGeometry x="460" y="40" width="120" height="100" as="geometry" />
        </mxCell>
        <mxCell id="3ygEQSFRceTd5VmDOqFs-19" value="" style="edgeStyle=orthogonalEdgeStyle;rounded=0;orthogonalLoop=1;jettySize=auto;html=1;" parent="1" source="3ygEQSFRceTd5VmDOqFs-15" target="3ygEQSFRceTd5VmDOqFs-17" edge="1">
          <mxGeometry relative="1" as="geometry" />
        </mxCell>
        <mxCell id="3ygEQSFRceTd5VmDOqFs-15" value="&lt;span style=&quot;white-space: pre&quot;&gt; &lt;/span&gt;user console" style="rounded=0;whiteSpace=wrap;html=1;" parent="1" vertex="1">
          <mxGeometry x="460" y="170" width="120" height="60" as="geometry" />
        </mxCell>
        <mxCell id="3ygEQSFRceTd5VmDOqFs-17" value="end" style="ellipse;whiteSpace=wrap;html=1;" parent="1" vertex="1">
          <mxGeometry x="460" y="342.5" width="120" height="45" as="geometry" />
        </mxCell>
      </root>
    </mxGraphModel>
  </diagram>
</mxfile>
